solid ASCII
  facet normal 1.735172e-15 -1.000000e+00 -1.776357e-15
    outer loop
      vertex   3.929426e+01 -2.741651e+01 -4.119249e+01
      vertex   4.338920e+01 -2.741651e+01 -4.119249e+01
      vertex   3.929426e+01 -2.741651e+01 -3.119249e+01
    endloop
  endfacet
  facet normal 8.675862e-16 -1.000000e+00 -2.131628e-15
    outer loop
      vertex   3.929426e+01 -2.741651e+01 -3.119249e+01
      vertex   4.338920e+01 -2.741651e+01 -4.119249e+01
      vertex   4.338920e+01 -2.741651e+01 -3.119249e+01
    endloop
  endfacet
  facet normal -1.000000e+00 -1.487291e-15 7.105427e-16
    outer loop
      vertex   3.929426e+01 -1.308422e+01 -4.119249e+01
      vertex   3.929426e+01 -2.741651e+01 -4.119249e+01
      vertex   3.929426e+01 -1.308422e+01 -3.119249e+01
    endloop
  endfacet
  facet normal -1.000000e+00 -1.487291e-15 7.105427e-16
    outer loop
      vertex   3.929426e+01 -1.308422e+01 -3.119249e+01
      vertex   3.929426e+01 -2.741651e+01 -4.119249e+01
      vertex   3.929426e+01 -2.741651e+01 -3.119249e+01
    endloop
  endfacet
  facet normal -1.735172e-15 1.000000e+00 1.776357e-15
    outer loop
      vertex   4.338920e+01 -1.308422e+01 -4.119249e+01
      vertex   3.929426e+01 -1.308422e+01 -4.119249e+01
      vertex   4.338920e+01 -1.308422e+01 -3.119249e+01
    endloop
  endfacet
  facet normal -1.735172e-15 1.000000e+00 1.776357e-15
    outer loop
      vertex   4.338920e+01 -1.308422e+01 -3.119249e+01
      vertex   3.929426e+01 -1.308422e+01 -4.119249e+01
      vertex   3.929426e+01 -1.308422e+01 -3.119249e+01
    endloop
  endfacet
  facet normal 1.000000e+00 1.983054e-15 -7.105427e-16
    outer loop
      vertex   4.338920e+01 -2.741651e+01 -4.119249e+01
      vertex   4.338920e+01 -1.308422e+01 -4.119249e+01
      vertex   4.338920e+01 -2.741651e+01 -3.119249e+01
    endloop
  endfacet
  facet normal 1.000000e+00 1.983054e-15 -7.105427e-16
    outer loop
      vertex   4.338920e+01 -2.741651e+01 -3.119249e+01
      vertex   4.338920e+01 -1.308422e+01 -4.119249e+01
      vertex   4.338920e+01 -1.308422e+01 -3.119249e+01
    endloop
  endfacet
  facet normal 8.675862e-16 -1.983054e-15 1.000000e+00
    outer loop
      vertex   4.338920e+01 -2.741651e+01 -3.119249e+01
      vertex   4.338920e+01 -1.308422e+01 -3.119249e+01
      vertex   3.929426e+01 -2.741651e+01 -3.119249e+01
    endloop
  endfacet
  facet normal 2.580705e-30 -1.735172e-15 1.000000e+00
    outer loop
      vertex   3.929426e+01 -2.741651e+01 -3.119249e+01
      vertex   4.338920e+01 -1.308422e+01 -3.119249e+01
      vertex   3.929426e+01 -1.308422e+01 -3.119249e+01
    endloop
  endfacet
  facet normal -3.440941e-30 1.983054e-15 -1.000000e+00
    outer loop
      vertex   4.338920e+01 -1.308422e+01 -4.119249e+01
      vertex   4.338920e+01 -2.741651e+01 -4.119249e+01
      vertex   3.929426e+01 -1.308422e+01 -4.119249e+01
    endloop
  endfacet
  facet normal -3.440941e-30 1.983054e-15 -1.000000e+00
    outer loop
      vertex   3.929426e+01 -1.308422e+01 -4.119249e+01
      vertex   4.338920e+01 -2.741651e+01 -4.119249e+01
      vertex   3.929426e+01 -2.741651e+01 -4.119249e+01
    endloop
  endfacet
endsolid
